<?xml version="1.0" encoding="UTF-8"?>
<svg id="_Слой_1" data-name="Слой 1" xmlns="http://www.w3.org/2000/svg" viewBox="0 0 1049.78 178.69">
  <g>
    <g>
      <path d="M286.88,164.74c-20.52,0-36.84-6.44-48.96-19.31-12.12-12.88-18.18-31.22-18.18-55.05s6.06-42.17,18.18-55.05c12.12-12.87,28.44-19.31,48.96-19.31,15.97,0,29.06,3.93,39.25,11.78,10.19,7.85,17.42,18.73,21.69,32.63h-26.85c-6.61-14.46-17.97-21.69-34.09-21.69-12.67,0-22.72,4.44-30.16,13.32-7.44,8.88-11.15,21.66-11.15,38.32s3.72,29.44,11.15,38.32c7.44,8.88,17.49,13.32,30.16,13.32,16.11,0,27.48-7.23,34.09-21.69h26.85c-4.27,13.91-11.5,24.79-21.69,32.64-10.19,7.85-23.28,11.77-39.25,11.77Z"/>
      <path d="M361.92,162.68V18.08h58.05c14.32,0,26.13,4.44,35.43,13.32,9.3,8.88,13.94,20.28,13.94,34.19s-4.65,25.31-13.94,34.19c-9.3,8.88-21.11,13.32-35.43,13.32h-32.23v49.58h-25.82ZM387.74,90.38h29.95c8.26,0,14.63-2.17,19.11-6.51,4.47-4.34,6.71-10.43,6.71-18.28s-2.24-13.94-6.71-18.28c-4.48-4.34-10.84-6.51-19.11-6.51h-29.95v49.58Z"/>
      <path d="M483.29,162.68V18.08h53.71c19.97,0,35.8,6.34,47.51,19,11.7,12.67,17.56,30.44,17.56,53.3s-5.86,40.63-17.56,53.3c-11.71,12.67-27.55,19-47.51,19h-53.71ZM509.11,139.95h26.85c11.84,0,21.52-4.26,29.02-12.8,7.5-8.54,11.26-20.79,11.26-36.77s-3.75-28.23-11.26-36.77c-7.51-8.54-17.18-12.8-29.02-12.8h-26.85v99.15Z"/>
    </g>
    <g>
      <path d="M617.93,162.68V18.08h52.67c13.91,0,24.96,4.03,33.15,12.09,8.19,8.06,12.29,18.83,12.29,32.33s-4.1,24.27-12.29,32.33c-8.19,8.06-19.25,12.09-33.15,12.09h-41.31v55.77h-11.36ZM629.29,96.58h40.28c10.74,0,19.28-3.1,25.62-9.3,6.33-6.2,9.5-14.46,9.5-24.79s-3.17-18.59-9.5-24.79c-6.34-6.19-14.87-9.3-25.62-9.3h-40.28v68.17Z"/>
      <path d="M710.22,162.68l54.74-144.6h13.43l54.74,144.6h-11.36l-14.46-38.21h-71.27l-14.46,38.21h-11.36ZM739.97,114.13h63.42l-31.19-82.63h-1.03l-31.19,82.63Z"/>
      <path d="M868.9,162.68V28.4h-49.58v-10.33h110.52v10.33h-49.58v134.27h-11.36Z"/>
      <path d="M942.36,162.68V18.08h11.36v66.1h84.69V18.08h11.36v144.6h-11.36v-68.17h-84.69v68.17h-11.36Z"/>
    </g>
  </g>
  <path d="M178.69,20.16v138.31c0,11.16-9.05,20.21-20.21,20.21H20.16c-11.13,0-20.16-9.03-20.16-20.21v-30.81h64.41c1.46,0,2.86-.58,3.9-1.61l53.36-53.36v35.4l24.41-24.41v-50.24c0-1.35-1.09-2.44-2.44-2.44h-50.24l-24.41,24.41h35.4l-47.8,47.85H0V20.16C0,9.03,9.03,0,20.16,0h138.31C169.66,0,178.69,9.03,178.69,20.16Z"/>
</svg>